<?xml version="1.0" standalone="no"?>
<!DOCTYPE svg PUBLIC "-//W3C//DTD SVG 20010904//EN"
 "http://www.w3.org/TR/2001/REC-SVG-20010904/DTD/svg10.dtd">
<svg version="1.0" xmlns="http://www.w3.org/2000/svg"
 width="500.000000pt" height="500.000000pt" viewBox="0 0 500.000000 500.000000"
 preserveAspectRatio="xMidYMid meet">

<g transform="translate(0.000000,500.000000) scale(0.100000,-0.100000)"
fill="#000000" stroke="none">
<path d="M2335 4064 c-246 -44 -493 -173 -671 -349 -361 -359 -477 -892 -298
-1372 46 -125 80 -185 170 -303 260 -340 627 -525 1039 -523 145 0 274 23 418
72 242 84 524 302 627 484 17 30 40 58 53 64 26 12 34 27 83 153 67 174 86
267 91 443 4 99 1 188 -6 235 -71 453 -332 807 -734 997 -183 86 -322 115
-546 114 -80 0 -182 -7 -226 -15z m512 -98 c130 -32 302 -110 407 -183 108
-76 238 -208 309 -315 146 -219 227 -544 198 -798 -11 -98 -43 -236 -64 -277
-14 -26 -12 -33 -72 222 -15 61 -53 209 -85 330 -32 121 -61 238 -65 260 -5
28 -18 51 -44 76 -52 49 -195 109 -294 123 l-79 11 -22 60 c-52 144 -177 260
-329 307 -148 45 -335 5 -462 -99 -64 -51 -126 -138 -155 -216 -20 -54 -21
-55 -70 -61 -86 -11 -182 -46 -257 -93 -87 -54 -81 -40 -163 -378 -63 -259
-97 -390 -133 -510 l-20 -70 -19 60 c-75 235 -77 510 -7 735 69 220 230 453
414 603 126 102 341 195 535 232 118 22 349 13 477 -19z m-140 -266 c209 -73
334 -305 278 -520 -23 -89 -52 -135 -133 -211 -93 -89 -174 -123 -287 -122
-91 1 -140 16 -220 67 -137 88 -195 192 -203 361 -3 90 -1 107 22 169 41 108
89 164 193 222 112 64 232 75 350 34z m-647 -414 c0 -157 95 -337 226 -427 52
-35 170 -79 214 -79 l30 0 0 -192 c0 -203 -3 -233 -25 -242 -8 -3 -46 24 -87
60 -139 126 -359 204 -528 189 -81 -7 -176 -26 -254 -50 -48 -15 -48 -15 -43
8 15 70 175 669 180 673 20 16 162 78 205 88 84 21 82 21 82 -28z m1133 18
c12 -3 57 -22 99 -41 87 -40 84 -35 122 -188 14 -55 50 -196 81 -313 30 -118
55 -218 55 -223 0 -5 -13 -3 -30 6 -16 8 -70 24 -119 36 -86 20 -90 22 -132
72 -24 29 -77 87 -118 130 -62 64 -80 77 -106 77 -25 0 -35 6 -48 33 -9 17
-22 39 -29 48 -9 14 -6 24 19 55 41 53 73 153 80 250 l6 81 49 -8 c27 -4 59
-11 71 -15z m-264 -440 l25 -35 -30 -24 -29 -24 -29 28 -28 28 28 32 c16 17
31 31 34 31 3 0 16 -16 29 -36z m-135 -88 c31 -31 33 -37 28 -81 -5 -48 -5
-49 48 -95 l53 -46 -69 -47 c-38 -25 -100 -73 -137 -107 -51 -47 -71 -60 -87
-55 -19 6 -20 15 -20 215 l0 210 28 5 c20 4 91 24 120 34 1 1 18 -14 36 -33z
m433 -193 c163 -171 173 -184 173 -220 0 -21 -4 -43 -8 -49 -11 -17 -48 -34
-73 -34 -24 0 -128 97 -289 271 l-99 105 52 57 c28 32 56 56 61 54 6 -2 88
-85 183 -184z m-1144 -88 c90 -19 245 -96 296 -146 35 -35 39 -43 28 -60 -11
-18 -13 -17 -42 10 -117 111 -366 165 -580 128 -49 -9 -123 -27 -163 -40 l-74
-24 6 30 c3 17 11 36 17 44 13 15 123 50 196 63 79 13 243 11 316 -5z m937
-40 c13 -14 22 -27 19 -29 -2 -2 -29 -11 -59 -21 -72 -23 -146 -60 -191 -96
-43 -34 -59 -36 -59 -9 0 25 105 111 184 150 72 36 76 37 106 5z m516 -6 c30
-12 44 -26 52 -48 6 -17 9 -31 6 -31 -28 0 -124 36 -124 47 0 8 -7 25 -17 39
l-16 25 29 -7 c16 -4 48 -15 70 -25z m-1435 -103 c79 -17 182 -62 227 -100 48
-42 39 -48 -25 -16 -104 51 -173 65 -333 64 -122 0 -163 -4 -263 -28 -65 -15
-136 -33 -157 -41 -42 -15 -49 -9 -34 29 7 17 192 81 277 95 82 14 236 12 308
-3z m1042 -21 l18 -25 -41 0 c-86 0 -254 -45 -292 -78 -10 -8 -18 -10 -18 -4
0 31 116 99 200 118 86 19 112 17 133 -11z m439 -39 c32 -14 55 -42 44 -53 -2
-3 -21 0 -43 6 -21 6 -50 11 -65 11 -33 0 -42 13 -28 41 13 23 27 22 92 -5z
m-939 -36 c33 -26 51 -79 38 -113 -19 -50 -84 -75 -150 -57 -44 12 -67 37 -77
88 -6 27 -1 37 29 67 31 31 41 35 85 35 34 0 57 -6 75 -20z m-492 -64 c107
-23 161 -51 213 -112 72 -83 151 -114 257 -99 60 8 131 54 174 113 51 69 183
112 345 112 131 0 309 -18 373 -37 l57 -18 -34 -51 c-39 -58 -85 -107 -175
-187 l-64 -57 -331 -2 c-182 -1 -300 -3 -263 -5 39 -2 65 -8 62 -13 -4 -6 0
-10 7 -11 13 0 -20 -16 -36 -17 -5 0 -12 -5 -15 -11 -4 -6 -29 -14 -57 -17
-66 -9 -84 -24 -47 -39 l28 -12 -23 -7 c-13 -4 -35 -5 -50 -1 -15 4 -38 8 -52
10 -14 1 -57 5 -97 10 -76 8 -119 1 -94 -15 8 -5 -8 -6 -39 -4 -53 4 -60 -10
-10 -19 21 -4 21 -4 -7 -6 -31 -1 -44 12 -35 37 2 6 12 12 21 12 14 0 14 2 1
10 -8 5 -61 10 -118 10 -108 0 -142 9 -143 38 0 12 -4 9 -11 -8 -6 -14 -12
-20 -15 -13 -2 7 -11 9 -19 6 -8 -3 -14 -1 -14 3 0 5 -14 15 -30 22 -17 8 -28
18 -24 23 3 5 -4 9 -16 9 -43 0 -306 280 -282 301 4 3 30 12 57 19 154 38 389
50 506 26z m-112 -442 c14 -12 -19 -1 -35 12 -18 14 -18 14 6 3 14 -6 27 -13
29 -15z m408 -30 c-3 -3 -12 -4 -19 -1 -8 3 -5 6 6 6 11 1 17 -2 13 -5z m-164
-41 c-7 -2 -21 -2 -30 0 -10 3 -4 5 12 5 17 0 24 -2 18 -5z"/>
<path d="M2450 3637 c-90 -34 -166 -106 -216 -205 -24 -48 -29 -69 -29 -132 0
-152 79 -276 219 -341 53 -25 78 -31 138 -31 181 -1 322 121 358 311 27 141
-58 304 -194 373 -52 26 -75 32 -151 35 -59 2 -102 -1 -125 -10z m212 -73
c109 -35 181 -141 181 -269 0 -166 -93 -273 -252 -292 -58 -7 -152 18 -198 53
-71 54 -116 149 -115 244 1 69 13 101 63 168 84 110 182 140 321 96z"/>
<path d="M2436 3469 c-29 -23 -34 -50 -11 -69 21 -18 61 1 77 36 11 23 10 28
-7 40 -25 18 -27 18 -59 -7z"/>
<path d="M2352 3328 c-27 -27 -11 -88 24 -88 26 0 38 28 32 71 -3 27 -36 37
-56 17z"/>
<path d="M2498 1843 c12 -2 32 -2 45 0 12 2 2 4 -23 4 -25 0 -35 -2 -22 -4z"/>
<path d="M2020 1790 c-16 -10 -13 -11 32 -14 15 -1 24 2 21 6 -2 5 -14 6 -25
2 -14 -4 -18 -2 -14 5 9 13 6 14 -14 1z"/>
</g>
</svg>
